<?xml version="1.0" encoding="UTF-8" standalone="no"?>
<!-- Created with Inkscape (http://www.inkscape.org/) -->

<svg
   xmlns:dc="http://purl.org/dc/elements/1.1/"
   xmlns:cc="http://creativecommons.org/ns#"
   xmlns:rdf="http://www.w3.org/1999/02/22-rdf-syntax-ns#"
   xmlns:svg="http://www.w3.org/2000/svg"
   xmlns="http://www.w3.org/2000/svg"
   xmlns:sodipodi="http://sodipodi.sourceforge.net/DTD/sodipodi-0.dtd"
   xmlns:inkscape="http://www.inkscape.org/namespaces/inkscape"
   version="1.1"
   id="svg831"
   xml:space="preserve"
   width="46.5532"
   height="46.543716"
   viewBox="0 0 46.5532 46.543716"
   sodipodi:docname="SMS group_4C_standard_CMYK.eps"
   inkscape:version="0.92.3 (2405546, 2018-03-11)"><metadata
     id="metadata837"><rdf:RDF><cc:Work
         rdf:about=""><dc:format>image/svg+xml</dc:format><dc:type
           rdf:resource="http://purl.org/dc/dcmitype/StillImage" /><dc:title></dc:title></cc:Work></rdf:RDF></metadata><defs
     id="defs835" /><sodipodi:namedview
     pagecolor="#ffffff"
     bordercolor="#666666"
     borderopacity="1"
     objecttolerance="10"
     gridtolerance="10"
     guidetolerance="10"
     inkscape:pageopacity="0"
     inkscape:pageshadow="2"
     inkscape:window-width="1519"
     inkscape:window-height="941"
     id="namedview833"
     showgrid="false"
     fit-margin-top="0.6"
     fit-margin-right="0.6"
     fit-margin-left="0.6"
     fit-margin-bottom="0.6"
     inkscape:zoom="1.3139599"
     inkscape:cx="36.173209"
     inkscape:cy="22.972915"
     inkscape:window-x="0"
     inkscape:window-y="0"
     inkscape:window-maximized="0"
     inkscape:current-layer="g839" /><g
     id="g839"
     inkscape:groupmode="layer"
     inkscape:label="ink_ext_XXXXXX"
     transform="matrix(1.3333333,0,0,-1.3333333,-131.64013,46.537466)"><g
       id="g5133"><path
         d="m 116.16,12.9453 c 0.012,0 0.02,-0.0039 0.028,-0.0039 1.328,0 2.519,0.5781 3.343,1.4922 0.719,0.8008 1.164,1.8555 1.164,3.0156 0,1.086 -0.386,2.0821 -1.031,2.8629 -0.82,0.9961 -2.058,1.6289 -3.445,1.641 -0.008,0 -0.016,0 -0.024,0 h -0.007 c -1.036,0 -1.989,-0.3558 -2.75,-0.9418 -1.067,-0.8242 -1.754,-2.1133 -1.754,-3.5664 -0.004,-2.4761 2,-4.4879 4.476,-4.4996 v 0"
         style="fill:#231f20;fill-opacity:1;fill-rule:nonzero;stroke:none;stroke-width:0.1"
         id="path859"
         inkscape:connector-curvature="0" /><path
         d="m 116.074,30.5 c -3.004,-0.0277 -5.761,-1.0668 -7.953,-2.793 -0.723,-0.5707 -1.387,-1.2148 -1.976,-1.9218 -1.903,-2.293 -3.039,-5.2391 -3.012,-8.4532 0.012,-1.0312 0.144,-2.0351 0.379,-2.9961 0.566,-2.3203 1.754,-4.3984 3.379,-6.04684 2.375,-2.41015 5.683,-3.90234 9.336,-3.89453 l -0.008,1.7461 -0.004,1.44921 c -5.418,-0.01562 -9.84,4.34766 -9.887,9.77346 -0.027,3.1719 1.453,6.0117 3.766,7.832 1.656,1.3047 3.738,2.0938 6.012,2.1129 h 0.011 c 0.016,0 0.035,0 0.051,0 3.039,0.0039 5.762,-1.3629 7.578,-3.5269 1.418,-1.6926 2.281,-3.8672 2.306,-6.2461 0.018,-2.5391 -0.919,-4.8594 -2.482,-6.6211 l 0.352,-0.3125 2.039,-1.80472 c 1.763,1.99222 2.927,4.52342 3.212,7.31252 0.047,0.4754 0.073,0.9605 0.069,1.4527 -0.004,0.3828 -0.026,0.7621 -0.061,1.1371 -0.258,2.7071 -1.336,5.168 -2.99,7.1356 -1.57,1.8722 -3.66,3.2929 -6.043,4.0515 -1.257,0.4028 -2.597,0.6164 -3.984,0.6137 -0.023,0 -0.047,0 -0.07,0 -0.008,0 -0.012,0 -0.02,0 v 0"
         style="fill:#3576c4;fill-opacity:1;fill-rule:nonzero;stroke:none;stroke-width:0.1"
         id="path861"
         inkscape:connector-curvature="0" /><path
         d="m 107.352,17.4492 c 0,-4.8633 3.925,-8.80467 8.785,-8.83592 0.015,0 0.031,0 0.051,0 2.605,0 4.945,1.12891 6.562,2.92192 1.414,1.5664 2.273,3.6406 2.273,5.914 0,2.1328 -0.757,4.0899 -2.015,5.6168 -1.61,1.9531 -4.039,3.1992 -6.762,3.2192 l -0.023,-3.3254 c 1.699,-0.0106 3.215,-0.7891 4.218,-2.0067 0.79,-0.9531 1.262,-2.1718 1.262,-3.5039 0,-1.4219 -0.543,-2.7109 -1.426,-3.6875 -1.007,-1.1211 -2.464,-1.8281 -4.089,-1.8281 -0.012,0 -0.024,0 -0.036,0 -3.031,0.0195 -5.48,2.4805 -5.48,5.5156 0,1.777 0.844,3.3512 2.148,4.359 l -2.035,2.6328 c -2.086,-1.6168 -3.433,-4.1488 -3.433,-6.9918 v 0"
         style="fill:#c51e28;fill-opacity:1;fill-rule:nonzero;stroke:none;stroke-width:0.1"
         id="path863"
         inkscape:connector-curvature="0" /><path
         d="m 133.13,18.8082 c -0.013,0.1289 -0.024,0.2578 -0.035,0.3867 -0.035,0.3203 -0.078,0.6399 -0.129,0.9614 -0.025,0.1398 -0.043,0.2808 -0.068,0.4179 -0.002,0.0192 -0.006,0.0391 -0.01,0.0621 -0.021,0.1059 -0.051,0.2071 -0.075,0.3129 -0.079,0.3668 -0.161,0.7379 -0.257,1.1012 -0.043,0.1488 -0.099,0.2969 -0.146,0.4457 -0.097,0.316 -0.194,0.6289 -0.311,0.9371 -0.076,0.2031 -0.164,0.3988 -0.246,0.5938 -0.103,0.246 -0.205,0.4882 -0.318,0.7257 -0.112,0.2434 -0.237,0.4735 -0.362,0.7071 -0.103,0.1843 -0.195,0.3722 -0.302,0.5554 -0.151,0.2539 -0.311,0.5 -0.473,0.7461 -0.1,0.1528 -0.195,0.3047 -0.295,0.4524 -0.176,0.25 -0.365,0.4894 -0.551,0.7273 -0.082,0.1047 -0.156,0.2153 -0.242,0.3164 l -0.004,-0.0047 c -0.685,0.8293 -1.435,1.5946 -2.254,2.2743 l -1.239,-1.4879 -0.637,-0.77 c 0.758,-0.6289 1.441,-1.3484 2.058,-2.1289 0.158,-0.2031 0.318,-0.4062 0.465,-0.6172 0.082,-0.1167 0.16,-0.2417 0.242,-0.3628 0.133,-0.2071 0.271,-0.4141 0.396,-0.6289 0.086,-0.145 0.163,-0.3012 0.245,-0.4532 0.106,-0.1918 0.212,-0.3871 0.306,-0.5859 0.093,-0.1965 0.172,-0.3949 0.258,-0.5902 0.07,-0.168 0.143,-0.3321 0.207,-0.504 0.092,-0.2417 0.17,-0.4917 0.25,-0.7417 0.043,-0.1372 0.088,-0.27 0.128,-0.4102 0.075,-0.2699 0.136,-0.5512 0.196,-0.8289 0.03,-0.1359 0.065,-0.2692 0.09,-0.4059 0.006,-0.0429 0.014,-0.082 0.022,-0.125 0.004,-0.0351 0.013,-0.0742 0.017,-0.1093 0.004,-0.0196 0.004,-0.0348 0.007,-0.0547 0.067,-0.3942 0.11,-0.793 0.14,-1.1832 0.013,-0.1328 0.013,-0.2661 0.021,-0.3989 0.014,-0.3015 0.026,-0.598 0.022,-0.8941 0,-0.0391 0,-0.0789 0,-0.1184 0,-0.0226 -0.004,-0.0496 -0.008,-0.0734 -0.007,-0.4063 -0.035,-0.8121 -0.082,-1.2066 -0.008,-0.0821 -0.022,-0.1563 -0.035,-0.2383 -0.043,-0.3321 -0.094,-0.6641 -0.159,-0.9922 -0.031,-0.1563 -0.078,-0.3086 -0.113,-0.4609 -0.06,-0.2461 -0.115,-0.4883 -0.185,-0.7266 -0.061,-0.2109 -0.141,-0.418 -0.215,-0.625 -0.061,-0.1758 -0.117,-0.3516 -0.182,-0.5234 -0.094,-0.2383 -0.204,-0.4688 -0.31,-0.6993 -0.061,-0.1367 -0.12,-0.2773 -0.186,-0.414 -0.123,-0.2344 -0.254,-0.4649 -0.383,-0.6953 -0.072,-0.1211 -0.138,-0.2461 -0.211,-0.3672 -0.47,-0.76566 -1.013,-1.48441 -1.621,-2.14847 -0.176,-0.19531 -0.371,-0.3789 -0.564,-0.5664 -0.148,-0.14454 -0.293,-0.29688 -0.449,-0.4375 -0.215,-0.19141 -0.445,-0.36719 -0.672,-0.54688 -0.152,-0.11719 -0.297,-0.24219 -0.449,-0.35547 -0.231,-0.16797 -0.473,-0.3164 -0.715,-0.46875 -0.172,-0.10937 -0.34,-0.22265 -0.516,-0.32422 -0.222,-0.1289 -0.453,-0.24218 -0.683,-0.35547 -0.215,-0.10937 -0.426,-0.21875 -0.645,-0.3164 -0.203,-0.08985 -0.414,-0.16406 -0.621,-0.2461 -0.261,-0.09765 -0.519,-0.20312 -0.793,-0.28906 -0.187,-0.05859 -0.383,-0.10547 -0.578,-0.16015 -0.293,-0.07813 -0.586,-0.15625 -0.887,-0.21875 -0.207,-0.04297 -0.421,-0.07032 -0.632,-0.10157 -0.309,-0.05078 -0.618,-0.08984 -0.922,-0.11718 -0.242,-0.02344 -0.489,-0.03125 -0.735,-0.04297 -0.257,-0.00782 -0.519,-0.01563 -0.777,-0.01172 -0.312,0.0039 -0.625,0.02734 -0.934,0.05469 -0.203,0.01953 -0.406,0.03125 -0.605,0.05468 -0.285,0.03907 -0.563,0.09375 -0.844,0.14453 -0.222,0.04297 -0.449,0.08204 -0.668,0.13672 -0.238,0.0586 -0.469,0.12891 -0.699,0.19922 -0.254,0.07813 -0.508,0.14844 -0.754,0.23828 -0.199,0.07032 -0.387,0.15625 -0.582,0.23438 -0.266,0.11328 -0.531,0.21875 -0.789,0.34375 -0.18,0.08594 -0.352,0.1875 -0.527,0.28515 -0.254,0.13672 -0.508,0.27344 -0.754,0.42579 -0.188,0.11328 -0.364,0.24218 -0.543,0.36718 -0.219,0.15235 -0.438,0.29688 -0.645,0.45703 -0.304,0.23829 -0.601,0.48829 -0.883,0.7461 -0.085,0.07812 -0.171,0.16015 -0.253,0.24219 -0.282,0.26953 -0.551,0.55078 -0.809,0.83984 -0.043,0.05078 -0.086,0.09375 -0.129,0.14453 -0.094,0.10547 -0.184,0.21484 -0.269,0.32813 -0.075,0.08984 -0.145,0.18359 -0.215,0.27343 -0.16,0.20703 -0.313,0.41797 -0.457,0.63282 -0.063,0.08984 -0.125,0.18359 -0.184,0.27734 -0.121,0.18358 -0.234,0.37498 -0.348,0.56638 -0.105,0.1797 -0.203,0.3633 -0.3,0.5469 -0.075,0.1445 -0.149,0.2852 -0.219,0.4336 -0.113,0.2383 -0.219,0.4805 -0.32,0.7227 -0.047,0.1093 -0.094,0.2187 -0.137,0.3242 -0.09,0.2383 -0.168,0.4843 -0.246,0.7304 -0.047,0.1524 -0.106,0.3008 -0.149,0.4571 -0.086,0.2968 -0.152,0.6015 -0.215,0.9062 -0.023,0.1094 -0.054,0.2149 -0.078,0.3281 -0.086,0.4688 -0.148,0.9375 -0.191,1.4024 -0.012,0.1601 -0.012,0.3238 -0.02,0.4879 -0.015,0.289 -0.031,0.582 -0.027,0.8711 0.004,0.309 0.027,0.6172 0.051,0.9218 0.015,0.1907 0.023,0.3833 0.043,0.5743 0.035,0.2804 0.086,0.559 0.137,0.832 0.039,0.2148 0.07,0.4297 0.117,0.6406 0.05,0.2305 0.121,0.4531 0.183,0.6828 0.071,0.2473 0.137,0.4973 0.219,0.7356 0.063,0.1824 0.141,0.3629 0.211,0.5387 0.105,0.2734 0.207,0.5472 0.328,0.8117 0.074,0.1535 0.16,0.3054 0.234,0.457 0.141,0.2703 0.278,0.543 0.43,0.8094 0.094,0.1562 0.199,0.3051 0.301,0.457 0.156,0.2422 0.309,0.4883 0.48,0.7231 0.247,0.3281 0.504,0.648 0.774,0.957 0.008,0.0105 0.015,0.0191 0.023,0.0269 0.067,0.0782 0.145,0.1516 0.215,0.227 0.227,0.2461 0.457,0.484 0.699,0.7109 0.129,0.1172 0.258,0.2301 0.387,0.3434 0.172,0.1488 0.34,0.293 0.516,0.4336 0.113,0.0902 0.23,0.1723 0.347,0.2582 0.188,0.1402 0.379,0.2808 0.575,0.4098 0.117,0.0781 0.242,0.1562 0.363,0.2304 0.195,0.1203 0.394,0.2426 0.598,0.3559 0.14,0.0777 0.281,0.1519 0.425,0.2215 0.188,0.0984 0.379,0.1965 0.575,0.2863 0.175,0.0781 0.351,0.148 0.531,0.2223 0.168,0.0707 0.336,0.1406 0.511,0.2023 0.215,0.0793 0.438,0.1453 0.657,0.2156 0.144,0.043 0.289,0.0899 0.437,0.1328 0.246,0.0657 0.492,0.1211 0.746,0.1719 0.95,0.207 1.938,0.3242 2.95,0.3242 0.007,0 0.011,0 0.019,0 v 0.2618 l 0.004,2.6761 h -0.023 c -1.082,0 -2.141,-0.1058 -3.168,-0.3011 v 0.0043 c -0.008,0 -0.016,0 -0.02,-0.0043 -0.109,-0.0196 -0.207,-0.0508 -0.312,-0.0739 -0.375,-0.0781 -0.75,-0.1613 -1.114,-0.2621 -0.148,-0.043 -0.293,-0.0937 -0.437,-0.1406 -0.321,-0.0973 -0.641,-0.1992 -0.957,-0.3203 -0.199,-0.0738 -0.395,-0.1641 -0.59,-0.2461 -0.246,-0.1016 -0.492,-0.2027 -0.734,-0.3199 -0.243,-0.1137 -0.473,-0.2434 -0.708,-0.3684 -0.183,-0.1004 -0.375,-0.1945 -0.554,-0.2996 -0.258,-0.1527 -0.504,-0.3168 -0.75,-0.477 -0.153,-0.1023 -0.309,-0.1992 -0.457,-0.3007 -0.246,-0.1766 -0.485,-0.3633 -0.723,-0.5516 -0.109,-0.0848 -0.223,-0.1641 -0.324,-0.25 -0.031,-0.0227 -0.059,-0.0535 -0.09,-0.0781 -0.246,-0.211 -0.484,-0.4285 -0.719,-0.6516 -0.09,-0.082 -0.183,-0.1601 -0.269,-0.2461 -0.035,-0.0347 -0.071,-0.0699 -0.106,-0.1062 -0.09,-0.0887 -0.175,-0.1785 -0.265,-0.2727 -0.266,-0.2808 -0.524,-0.566 -0.774,-0.8629 -0.011,-0.016 -0.031,-0.0324 -0.043,-0.0472 -0.031,-0.0348 -0.054,-0.0778 -0.086,-0.1129 -1.293,-1.5899 -2.304,-3.4219 -2.957,-5.4141 -0.011,-0.0277 -0.019,-0.0508 -0.027,-0.0793 C 99.941,22.4762 99.8828,22.277 99.8238,22.0742 99.8051,21.9961 99.777,21.9207 99.7578,21.8434 99.7188,21.691 99.684,21.5391 99.6449,21.3824 99.6129,21.2527 99.582,21.1211 99.5551,20.9883 99.5309,20.8824 99.5117,20.773 99.4879,20.6641 99.457,20.484 99.4219,20.3043 99.391,20.1211 99.3789,20.0504 99.3711,19.9801 99.3629,19.9102 99.3281,19.6871 99.3008,19.4684 99.277,19.2461 99.2699,19.1992 99.2699,19.1563 99.2621,19.109 99.2379,18.8633 99.2188,18.6172 99.207,18.3672 c -0.0039,-0.0352 -0.0039,-0.075 -0.0039,-0.1145 -0.0152,-0.25 -0.0191,-0.5 -0.0191,-0.75 0,-0.0187 -0.0039,-0.0343 -0.0039,-0.0535 0,-0.0199 0.0039,-0.039 0.0039,-0.0629 0,-0.4062 0.0148,-0.8121 0.05,-1.2222 0,-0.0313 0,-0.0664 0.0039,-0.0977 0.032,-0.375 0.0781,-0.75 0.1332,-1.1289 0.0199,-0.1367 0.043,-0.2695 0.0668,-0.4023 0.0152,-0.0899 0.0269,-0.1836 0.0461,-0.2735 0.016,-0.0976 0.0469,-0.1875 0.0668,-0.2812 0.0582,-0.2891 0.1211,-0.5703 0.1953,-0.8516 0.0391,-0.1523 0.0859,-0.3047 0.1289,-0.457 0.0781,-0.2656 0.16,-0.5274 0.25,-0.7852 0.059,-0.1719 0.121,-0.3398 0.184,-0.5078 0.089,-0.2266 0.179,-0.4531 0.273,-0.6758 0.086,-0.1914 0.172,-0.3828 0.262,-0.5742 0.09,-0.18749 0.183,-0.37499 0.281,-0.55468 0.109,-0.21484 0.223,-0.42188 0.344,-0.625 0.09,-0.15625 0.183,-0.3125 0.277,-0.46484 0.137,-0.21875 0.277,-0.4336 0.422,-0.64454 0.094,-0.13671 0.188,-0.26953 0.281,-0.40234 0.157,-0.21094 0.317,-0.42187 0.481,-0.625 0.105,-0.12891 0.207,-0.25391 0.312,-0.37891 0.168,-0.19531 0.34,-0.38671 0.512,-0.57421 0.121,-0.12891 0.242,-0.25391 0.367,-0.37891 0.168,-0.16797 0.34,-0.33594 0.516,-0.5 0.144,-0.13281 0.289,-0.26172 0.437,-0.39063 0.164,-0.14062 0.332,-0.28125 0.5,-0.41406 0.172,-0.13672 0.348,-0.26953 0.528,-0.40234 0.152,-0.11719 0.312,-0.22656 0.468,-0.33594 0.2,-0.13672 0.403,-0.26953 0.606,-0.39844 0.152,-0.08984 0.301,-0.18359 0.453,-0.27343 0.219,-0.125 0.441,-0.25 0.668,-0.36719 0.148,-0.07813 0.297,-0.15235 0.449,-0.22656 0.231,-0.11329 0.461,-0.21875 0.699,-0.32422 0.161,-0.06641 0.321,-0.13282 0.485,-0.19922 0.117,-0.04688 0.23,-0.10156 0.347,-0.14453 0.102,-0.03907 0.207,-0.0625 0.305,-0.09766 0.238,-0.08594 0.481,-0.16016 0.723,-0.23437 0.187,-0.05469 0.375,-0.11329 0.566,-0.16407 0.297,-0.078122 0.598,-0.144529 0.902,-0.207029 0.141,-0.027343 0.282,-0.058593 0.426,-0.085937 0.059,-0.011719 0.117,-0.027344 0.176,-0.035156 0.273,-0.046875 0.555,-0.070313 0.828,-0.105469 0.149,-0.015625 0.297,-0.039063 0.445,-0.054688 0.372,-0.03125 0.75,-0.046875 1.125,-0.054687 0.106,-0.003906 0.211,-0.015625 0.317,-0.015625 0.031,0 0.066,-0.003906 0.098,-0.003906 0.015,0 0.031,0.003906 0.046,0.003906 0.067,0 0.133,0.003906 0.2,0.003906 0.418,0.007813 0.832,0.027344 1.242,0.0625 0.051,0.007813 0.101,0.007813 0.156,0.015625 0.484,0.046875 0.961,0.113281 1.434,0.199219 0.004,0 0.007,0 0.015,0 0.032,0.007812 0.067,0.011719 0.098,0.019531 0.043,0.007813 0.082,0.015625 0.121,0.027344 0.231,0.042969 0.457,0.09375 0.688,0.148437 0.066,0.015625 0.136,0.035157 0.203,0.050782 0.226,0.054687 0.445,0.117187 0.664,0.183597 0.082,0.02343 0.16,0.04687 0.238,0.07031 0.199,0.0625 0.395,0.12891 0.59,0.19922 0.101,0.03515 0.203,0.07031 0.301,0.10937 0.164,0.0625 0.328,0.12891 0.492,0.19532 0.129,0.05078 0.254,0.10546 0.379,0.16015 0.129,0.0586 0.258,0.11719 0.383,0.17578 0.152,0.07422 0.308,0.14844 0.457,0.22266 0.097,0.05078 0.191,0.09766 0.285,0.15234 0.176,0.09375 0.351,0.1875 0.523,0.28516 0.067,0.04297 0.133,0.08203 0.203,0.12109 0.188,0.11328 0.379,0.23047 0.563,0.35157 0.051,0.03125 0.101,0.0664 0.148,0.09765 0.196,0.13281 0.392,0.26563 0.578,0.40625 0.043,0.02735 0.086,0.0625 0.129,0.09375 0.193,0.14063 0.379,0.28516 0.564,0.4336 0.047,0.03906 0.09,0.07421 0.133,0.10937 0.174,0.14844 0.35,0.29688 0.518,0.44922 0.056,0.05078 0.109,0.10156 0.164,0.15234 0.153,0.14063 0.306,0.28516 0.453,0.4336 0.075,0.07031 0.142,0.14062 0.211,0.21484 0.125,0.12891 0.25,0.25781 0.375,0.39063 0.029,0.03125 0.056,0.05859 0.082,0.08593 0.047,0.05469 0.09,0.11328 0.142,0.16797 0.133,0.15235 0.265,0.3086 0.393,0.46485 0.086,0.10546 0.172,0.21484 0.258,0.32421 0.107,0.13282 0.207,0.26954 0.306,0.40625 0.094,0.12891 0.186,0.25782 0.276,0.38672 0.082,0.1211 0.164,0.25 0.246,0.375 0.094,0.14453 0.189,0.28516 0.279,0.4336 l 0.01,0.01562 c 0.021,0.03125 0.037,0.06641 0.055,0.09766 0.156,0.25781 0.306,0.51953 0.445,0.78515 0.016,0.02735 0.029,0.05469 0.039,0.08204 0.146,0.27734 0.287,0.55472 0.415,0.83982 0.015,0.0352 0.028,0.0703 0.043,0.1055 0.122,0.2773 0.243,0.5586 0.351,0.8437 0.024,0.0625 0.043,0.1289 0.066,0.1954 0.094,0.2539 0.189,0.5117 0.271,0.7695 0.043,0.1445 0.081,0.293 0.12,0.4375 0.052,0.1758 0.107,0.3476 0.149,0.5234 0.003,0.0117 0.003,0.0196 0.007,0.0313 0.051,0.2031 0.09,0.4101 0.137,0.6172 0.024,0.125 0.056,0.2461 0.078,0.375 0.052,0.2695 0.09,0.5429 0.129,0.8164 0.009,0.0664 0.021,0.1328 0.027,0.1992 0.037,0.2851 0.059,0.5781 0.082,0.8672 0.004,0.0586 0.012,0.1172 0.016,0.1758 0,0.0273 0.005,0.0535 0.009,0.0859 0.015,0.2808 0.018,0.5621 0.018,0.8465 0,0.039 0.004,0.0754 0.004,0.1144 v 0.0067 c -0.007,0.4465 -0.026,0.8953 -0.065,1.3484 v 0"
         style="fill:#c51e28;fill-opacity:1;fill-rule:nonzero;stroke:none;stroke-width:0.1"
         id="path865"
         inkscape:connector-curvature="0" /></g></g></svg>